<?xml version="1.0" encoding="UTF-8" standalone="no"?>
<svg
   xmlns:dc="http://purl.org/dc/elements/1.1/"
   xmlns:cc="http://creativecommons.org/ns#"
   xmlns:rdf="http://www.w3.org/1999/02/22-rdf-syntax-ns#"
   xmlns:svg="http://www.w3.org/2000/svg"
   xmlns="http://www.w3.org/2000/svg"
   xmlns:sodipodi="http://sodipodi.sourceforge.net/DTD/sodipodi-0.dtd"
   xmlns:inkscape="http://www.inkscape.org/namespaces/inkscape"
   aria-hidden="true"
   focusable="false"
   data-prefix="fas"
   data-icon="language"
   class="svg-inline--fa fa-language fa-w-20"
   role="img"
   viewBox="0 0 1840 1520"
   version="1.1"
   id="svg3763"
   sodipodi:docname="language-solid.svg"
   width="1840"
   height="1520"
   inkscape:version="0.92.3 (2405546, 2018-03-11)"
   inkscape:export-filename="/home/stephan/Downloads/language-solid.svg.png"
   inkscape:export-xdpi="15.65"
   inkscape:export-ydpi="15.65">
  <metadata
     id="metadata3769">
    <rdf:RDF>
      <cc:Work
         rdf:about="">
        <dc:format>image/svg+xml</dc:format>
        <dc:type
           rdf:resource="http://purl.org/dc/dcmitype/StillImage" />
        <dc:title></dc:title>
      </cc:Work>
    </rdf:RDF>
  </metadata>
  <defs
     id="defs3767" />
  <sodipodi:namedview
     pagecolor="#ffffff"
     bordercolor="#666666"
     borderopacity="1"
     objecttolerance="10"
     gridtolerance="10"
     guidetolerance="10"
     inkscape:pageopacity="0"
     inkscape:pageshadow="2"
     inkscape:window-width="1920"
     inkscape:window-height="1017"
     id="namedview3765"
     showgrid="false"
     fit-margin-top="400"
     fit-margin-right="600"
     fit-margin-bottom="800"
     fit-margin-left="600"
     inkscape:zoom="0.28795266"
     inkscape:cx="305.73929"
     inkscape:cy="886.01727"
     inkscape:window-x="0"
     inkscape:window-y="30"
     inkscape:window-maximized="1"
     inkscape:current-layer="svg3763" />
  <path
     d="M 752.1,540.2 C 748.6,528.1 744.3,507 744.3,507 h -0.5 c 0,0 -4.3,21.1 -7.8,33.2 l -11.1,37.5 H 763 Z M 1216,400 H 936 v 320 h 280 c 13.3,0 24,-10.7 24,-24 V 424 c 0,-13.3 -10.7,-24 -24,-24 z m -24,120 c 0,6.6 -5.4,12 -12,12 h -11.4 c -6.9,23.6 -21.7,47.4 -42.7,69.9 8.4,6.4 17.1,12.5 26.1,18 5.5,3.4 7.3,10.5 4.1,16.2 l -7.9,13.9 c -3.4,5.9 -10.9,7.8 -16.7,4.3 -12.6,-7.8 -24.5,-16.1 -35.4,-24.9 -10.9,8.7 -22.7,17.1 -35.4,24.9 -5.8,3.5 -13.3,1.6 -16.7,-4.3 l -7.9,-13.9 c -3.2,-5.6 -1.4,-12.8 4.2,-16.2 9.3,-5.7 18,-11.7 26.1,-18 -7.9,-8.4 -14.9,-17 -21,-25.7 -4,-5.7 -2.2,-13.6 3.7,-17.1 l 6.5,-3.9 7.3,-4.3 c 5.4,-3.2 12.4,-1.7 16,3.4 5,7 10.8,14 17.4,20.9 13.5,-14.2 23.8,-28.9 30,-43.2 H 1012 c -6.6,0 -12,-5.4 -12,-12 v -16 c 0,-6.6 5.4,-12 12,-12 h 64 v -16 c 0,-6.6 5.4,-12 12,-12 h 16 c 6.6,0 12,5.4 12,12 v 16 h 64 c 6.6,0 12,5.4 12,12 z M 600,424 v 272 c 0,13.3 10.7,24 24,24 H 904 V 400 H 624 c -13.3,0 -24,10.7 -24,24 z M 658.9,640.1 716.4,471 c 1.7,-4.9 6.2,-8.1 11.4,-8.1 h 32.5 c 5.1,0 9.7,3.3 11.4,8.1 l 57.5,169.1 c 2.6,7.8 -3.1,15.9 -11.4,15.9 h -22.9 a 12,12 0 0 1 -11.5,-8.6 L 774,615.5 h -60.2 l -9.1,31.8 c -1.5,5.1 -6.2,8.7 -11.5,8.7 h -22.9 c -8.2,0 -14,-8.1 -11.4,-15.9 z"
     id="path3761"
     inkscape:connector-curvature="0"
     style="fill:#2196f3;fill-opacity:1" />
  <text
     xml:space="preserve"
     style="font-style:normal;font-weight:normal;font-size:192px;line-height:1.25;font-family:sans-serif;letter-spacing:0px;word-spacing:0px;fill:#000000;fill-opacity:1;stroke:none"
     x="576.48364"
     y="1085.9009"
     id="text3773"><tspan
       sodipodi:role="line"
       id="tspan3771"
       x="576.48364"
       y="1085.9009">Slovenian</tspan></text>
  <flowRoot
     xml:space="preserve"
     id="flowRoot3775"
     style="fill:black;fill-opacity:1;stroke:none;font-family:sans-serif;font-style:normal;font-weight:normal;font-size:40px;line-height:1.25;letter-spacing:0px;word-spacing:0px"><flowRegion
       id="flowRegion3777"><rect
         id="rect3779"
         width="184.05803"
         height="90.292618"
         x="451.4631"
         y="1006.0266" /></flowRegion><flowPara
       id="flowPara3781" /></flowRoot></svg>
